# xmcd CD database file
#
# Track frame offsets:
#	150
#	9725
#	25101
#	41454
#	54838
#	65647
#	79809
#	92015
#	104798
#	117040
#	129673
#	140349
#	155298
#	169939
#	184749
#	195804
#	209963
#	223480
#	235517
#
# Disc length: 3305 seconds
#
# Revision: 1
# Processed by: cddbd v1.4PL0 Copyright (c) Steve Scherf et al.
# Submitted via: CDex 1.50Beta7
#
DISCID=0b0ce713
DTITLE=Garner, Errol - Hall of fame - I Dindn't Know
DYEAR=2002
DGENRE=Jazz
TTITLE0=Indiana
TTITLE1=Honeysuckle
TTITLE2=I'm In The Mood For Love
TTITLE3=I Can't Get Started
TTITLE4=Play, Piano, Play
TTITLE5=Undecided
TTITLE6=You're Blase
TTITLE7=Sophisticated Lady
TTITLE8=Ain't She Sweet
TTITLE9=I Didn't Know
TTITLE10=Fine And Dany
TTITLE11=Robbin's Nest
TTITLE12=Please Don't Talk About Me When I'm Gone
TTITLE13=It's The Talk Of The Town
TTITLE14=You're Driving Me Crazy
TTITLE15=Ja-Da
TTITLE16=Summertime
TTITLE17=I Knever Knew
TTITLE18=Misty
EXTD=YEAR: 2002
EXTT0=
EXTT1=
EXTT2=
EXTT3=
EXTT4=
EXTT5=
EXTT6=
EXTT7=
EXTT8=
EXTT9=
EXTT10=
EXTT11=
EXTT12=
EXTT13=
EXTT14=
EXTT15=
EXTT16=
EXTT17=
EXTT18=
PLAYORDER=
